<svg width="139" height="27" viewBox="0 0 139 27" fill="none" xmlns="http://www.w3.org/2000/svg">
<path d="M55.6443 16.2724V16.2302C55.6443 13.8604 56.0912 12.1652 56.9683 11.1279C57.6515 10.411 58.6129 10.0231 59.5996 10.0399C60.7803 10.0399 61.6827 10.4026 62.3321 11.1194C62.6357 11.4652 62.8803 11.8616 63.0743 12.2748H68.2357C67.873 10.8411 67.2236 9.50017 66.3212 8.32789C64.702 6.48092 62.4165 5.55322 59.4563 5.55322C56.6563 5.55322 54.472 6.50622 52.8949 8.41223C51.3684 10.2592 50.6094 12.8483 50.6094 16.1459C50.6094 16.188 50.6094 16.3483 50.6094 16.3905C50.6094 19.688 51.3684 22.2687 52.8949 24.1241C54.472 26.0385 56.6563 26.9915 59.4563 26.9831C62.408 26.9831 64.6936 26.0554 66.3212 24.2084C67.2236 23.0362 67.873 21.6952 68.2357 20.2615H64.0863C63.5297 20.2615 62.9815 20.5229 62.6695 20.9868C62.5683 21.1386 62.4502 21.282 62.3321 21.4253C61.6912 22.1422 60.7888 22.5048 59.5996 22.5048C58.6045 22.5301 57.6515 22.1338 56.9683 21.4169C56.0828 20.388 55.6443 18.6844 55.6443 16.3145V16.2724Z" fill="#221F1F"/>
<path d="M83.7721 6.12695C82.3046 5.50286 80.6685 5.38479 79.1336 5.80647C77.5227 6.21129 76.1565 7.27393 75.3722 8.74138V1.78363C75.3722 0.805325 74.5794 0.0209961 73.6095 0.0209961H70.3457V26.6207H75.3553V16.0196C75.3553 14.2148 75.7179 12.798 76.4601 11.7691C77.1854 10.7486 78.383 10.1667 79.6311 10.2257C80.8456 10.192 81.9926 10.7992 82.6504 11.8281L82.6588 11.8365C83.0636 12.4353 83.3504 13.1016 83.4937 13.81C83.6203 14.51 83.6793 15.2184 83.6793 15.9353V26.6038H88.6298V14.6281C88.6298 12.2582 88.166 10.4028 87.2383 9.06186C86.3696 7.78838 85.172 6.76791 83.7721 6.12695Z" fill="#221F1F"/>
<path d="M46.5706 8.36185C44.9429 6.50645 42.6574 5.57031 39.7141 5.57031C36.9141 5.57031 34.7214 6.52331 33.1527 8.42932C31.6346 10.2763 30.8672 12.8654 30.8672 16.163C30.8672 19.6123 31.6515 22.2689 33.2202 24.1243C34.7973 26.0219 36.9731 26.9833 39.7815 26.9833C42.0924 26.9833 43.9984 26.3424 45.5249 25.2038C47.0513 24.0653 48.0802 22.4207 48.62 20.2617H44.6815C44.0743 20.2617 43.5008 20.5569 43.1466 21.046C42.6743 21.6954 41.755 22.5051 40.0936 22.5051C38.8117 22.5051 37.8502 22.0834 37.2009 21.2569C36.5093 20.4894 36.1466 19.3087 36.096 17.7063H48.8308C48.8393 13.5991 48.1562 10.2594 46.5706 8.36185ZM36.1045 14.2232C36.1551 12.8907 36.5177 11.8618 37.2093 11.1365C37.9008 10.4197 38.8623 10.0233 39.8574 10.057C41.0466 10.057 41.9996 10.4703 42.5899 11.1365C43.1803 11.8112 43.5261 12.8317 43.6273 14.2232H36.1045Z" fill="#221F1F"/>
<path d="M34.0117 1.78363C34.0117 0.805325 33.219 0.0209961 32.2491 0.0209961H15.1035V4.72697H21.9348V26.5954H27.1721V4.72697H34.0117V1.78363Z" fill="#221F1F"/>
<path d="M121.571 6.59067C120.373 6.91958 119.251 7.49307 118.29 8.28583C117.261 9.17136 116.46 10.3015 115.971 11.5665C115.363 13.1773 115.068 14.8978 115.119 16.6183V26.5953L120.28 26.6037V16.011C120.28 14.4593 120.618 13.3291 121.309 12.6123C122.001 11.8954 123.055 11.5243 124.48 11.5243H126.175V6.04248H125.442C124.134 6.04248 122.827 6.22802 121.571 6.59067Z" fill="#221F1F"/>
<path d="M136.997 11.5242C137.975 11.5242 138.759 10.7314 138.759 9.76156V6.05076L132.864 6.05919V1.7749C132.864 0.796602 132.071 0.00384006 131.093 0.0122737L127.703 0.0207073V16.4241C127.652 18.1446 127.947 19.8651 128.555 21.4759C129.052 22.7409 129.845 23.871 130.874 24.7566C131.835 25.5493 132.949 26.1228 134.155 26.4517C135.411 26.8228 136.718 26.9999 138.026 26.9999H138.759V21.5265H137.064C135.639 21.5265 134.585 21.1638 133.893 20.4386C133.202 19.7217 132.864 18.5916 132.864 17.0398V11.5326H136.997V11.5242Z" fill="#221F1F"/>
<path d="M100.547 0.012207C99.5264 0.012207 98.6155 0.661597 98.2951 1.63147L89.8867 26.595H95.4192L97.0469 21.1047H106.931L108.626 26.595H114.15L104.924 0.012207H100.547ZM98.4384 16.618L101.972 5.33383L105.506 16.618H98.4384Z" fill="#221F1F"/>
<path d="M7.55664 26.5781H12.912V6.96143H7.55664V26.5781Z" fill="#221F1F"/>
<path d="M0 8.73249V12.6626H5.33849V6.96143H1.77106C0.792762 6.96143 0 7.75419 0 8.73249Z" fill="#221F1F"/>
<path d="M12.8951 0.00390625H9.62288H9.32771C8.84699 0.00390625 8.41687 0.19788 8.09639 0.501491C8.07953 0.518358 8.07109 0.526792 8.05423 0.543659C7.74218 0.864138 7.55664 1.29425 7.55664 1.77497V2.07858V4.71831H12.8951V0.00390625Z" fill="#221F1F"/>
<path d="M5.33849 20.8857H0V26.5784H5.33849V20.8857Z" fill="#221F1F"/>
</svg>
